<?xml version="1.0" encoding="utf-8"?>
<!-- Generator: Adobe Illustrator 18.0.0, SVG Export Plug-In . SVG Version: 6.00 Build 0)  -->
<!DOCTYPE svg PUBLIC "-//W3C//DTD SVG 1.1//EN" "http://www.w3.org/Graphics/SVG/1.1/DTD/svg11.dtd">
<svg version="1.1" id="Layer_1" xmlns="http://www.w3.org/2000/svg" xmlns:xlink="http://www.w3.org/1999/xlink" x="0px" y="0px"
	 viewBox="0 0 32.9 31.8" enable-background="new 0 0 32.9 31.8" xml:space="preserve">
<g>
	<path fill="#616E7D" d="M2.9,2.1c-0.7,0-1.2,0.5-1.2,1.2v25.7c0,0.7,0.5,1.2,1.2,1.2h27.2c0.7,0,1.2-0.5,1.2-1.2V3.3
		c0-0.7-0.5-1.2-1.2-1.2H2.9z M7.3,26.6H3.1v-4.3h4.3V26.6z M7.3,18.1H3.1v-4.3h4.3V18.1z M7.3,9.6H3.1V5.4h4.3V9.6z M24.3,16.1v12
		H8.7v-12v-12h15.6V16.1z M30,26.6h-4.3v-4.3H30V26.6z M30,18.1h-4.3v-4.3H30V18.1z M30,9.6h-4.3V5.4H30V9.6z"/>
	<rect x="3.1" y="22.3" fill="#82BFAB" width="4.3" height="4.3"/>
	<rect x="3.1" y="5.4" fill="#82BFAB" width="4.3" height="4.3"/>
	<rect x="3.1" y="13.9" fill="#82BFAB" width="4.3" height="4.3"/>
	<rect x="25.7" y="22.3" fill="#82BFAB" width="4.3" height="4.3"/>
	<rect x="25.7" y="5.4" fill="#82BFAB" width="4.3" height="4.3"/>
	<rect x="25.7" y="13.9" fill="#82BFAB" width="4.3" height="4.3"/>
	<rect x="8.7" y="4.2" fill="#AAD3C7" width="15.6" height="12"/>
	<rect x="8.7" y="16.1" fill="#82BFAB" width="15.6" height="12"/>
</g>
</svg>
